<svg width="63" height="13" viewBox="0 0 63 13" fill="none" xmlns="http://www.w3.org/2000/svg">
<path d="M7.33594 8.14844H10.0703C10.0339 8.9401 9.82031 9.63802 9.42969 10.2422C9.03906 10.8464 8.4974 11.3177 7.80469 11.6562C7.11719 11.9896 6.30469 12.1562 5.36719 12.1562C4.60677 12.1562 3.92708 12.0286 3.32812 11.7734C2.73438 11.5182 2.22917 11.151 1.8125 10.6719C1.40104 10.1927 1.08594 9.61198 0.867188 8.92969C0.653646 8.2474 0.546875 7.47917 0.546875 6.625V6.00781C0.546875 5.15365 0.658854 4.38542 0.882812 3.70312C1.11198 3.01562 1.4349 2.43229 1.85156 1.95312C2.27344 1.46875 2.77865 1.09896 3.36719 0.84375C3.95573 0.588542 4.60938 0.460938 5.32812 0.460938C6.31771 0.460938 7.15365 0.638021 7.83594 0.992188C8.51823 1.34635 9.04688 1.83333 9.42188 2.45312C9.79688 3.06771 10.0182 3.76823 10.0859 4.55469H7.35156C7.34115 4.1276 7.26823 3.77083 7.13281 3.48438C6.9974 3.19271 6.78385 2.97396 6.49219 2.82812C6.20052 2.68229 5.8125 2.60938 5.32812 2.60938C4.98958 2.60938 4.69531 2.67188 4.44531 2.79688C4.19531 2.92188 3.98698 3.11979 3.82031 3.39062C3.65365 3.66146 3.52865 4.01302 3.44531 4.44531C3.36719 4.8724 3.32812 5.38802 3.32812 5.99219V6.625C3.32812 7.22917 3.36458 7.74479 3.4375 8.17188C3.51042 8.59896 3.6276 8.94792 3.78906 9.21875C3.95052 9.48958 4.15885 9.6901 4.41406 9.82031C4.67448 9.94531 4.99219 10.0078 5.36719 10.0078C5.78385 10.0078 6.13542 9.94271 6.42188 9.8125C6.70833 9.67708 6.92969 9.47396 7.08594 9.20312C7.24219 8.92708 7.32552 8.57552 7.33594 8.14844ZM15.6328 9.875V6.39062C15.6328 6.15104 15.599 5.94531 15.5312 5.77344C15.4635 5.60156 15.3568 5.46875 15.2109 5.375C15.0651 5.27604 14.8698 5.22656 14.625 5.22656C14.4271 5.22656 14.2578 5.26042 14.1172 5.32812C13.9766 5.39583 13.8698 5.4974 13.7969 5.63281C13.724 5.76823 13.6875 5.9401 13.6875 6.14844H11.0547C11.0547 5.75781 11.1406 5.39583 11.3125 5.0625C11.4896 4.72396 11.7396 4.42969 12.0625 4.17969C12.3906 3.92969 12.7812 3.73698 13.2344 3.60156C13.6927 3.46094 14.2031 3.39062 14.7656 3.39062C15.4375 3.39062 16.0365 3.5026 16.5625 3.72656C17.0938 3.95052 17.513 4.28646 17.8203 4.73438C18.1276 5.17708 18.2812 5.73438 18.2812 6.40625V9.86719C18.2812 10.4193 18.3125 10.8385 18.375 11.125C18.4375 11.4062 18.526 11.6536 18.6406 11.8672V12H16C15.875 11.7396 15.7812 11.4219 15.7188 11.0469C15.6615 10.6667 15.6328 10.276 15.6328 9.875ZM15.9531 6.83594L15.9688 8.24219H14.8047C14.5599 8.24219 14.3516 8.27604 14.1797 8.34375C14.013 8.41146 13.8776 8.50521 13.7734 8.625C13.6745 8.73958 13.6016 8.86979 13.5547 9.01562C13.513 9.16146 13.4922 9.3151 13.4922 9.47656C13.4922 9.63281 13.5286 9.77344 13.6016 9.89844C13.6797 10.0182 13.7839 10.112 13.9141 10.1797C14.0443 10.2474 14.1901 10.2812 14.3516 10.2812C14.6432 10.2812 14.8906 10.2266 15.0938 10.1172C15.3021 10.0026 15.4609 9.86458 15.5703 9.70312C15.6797 9.54167 15.7344 9.39062 15.7344 9.25L16.3125 10.3281C16.2083 10.5365 16.0885 10.7474 15.9531 10.9609C15.8229 11.1745 15.6589 11.3724 15.4609 11.5547C15.2682 11.7318 15.0312 11.8776 14.75 11.9922C14.4688 12.1016 14.1276 12.1562 13.7266 12.1562C13.2057 12.1562 12.7266 12.0495 12.2891 11.8359C11.8568 11.6224 11.5104 11.3255 11.25 10.9453C10.9896 10.5599 10.8594 10.1172 10.8594 9.61719C10.8594 9.17969 10.9375 8.78906 11.0938 8.44531C11.2552 8.10156 11.4974 7.8099 11.8203 7.57031C12.1432 7.33073 12.5547 7.14844 13.0547 7.02344C13.5547 6.89844 14.1432 6.83594 14.8203 6.83594H15.9531ZM22.3984 5.64062V12H19.7656V3.54688H22.2266L22.3984 5.64062ZM24.8984 3.48438L24.8516 5.92969C24.7474 5.91927 24.6068 5.90625 24.4297 5.89062C24.2526 5.875 24.1042 5.86719 23.9844 5.86719C23.6771 5.86719 23.4115 5.90365 23.1875 5.97656C22.9688 6.04427 22.7865 6.14844 22.6406 6.28906C22.5 6.42448 22.3958 6.59635 22.3281 6.80469C22.2656 7.01302 22.237 7.25521 22.2422 7.53125L21.7656 7.21875C21.7656 6.65104 21.8203 6.13542 21.9297 5.67188C22.0443 5.20312 22.2057 4.79948 22.4141 4.46094C22.6224 4.11719 22.875 3.85417 23.1719 3.67188C23.4688 3.48438 23.8021 3.39062 24.1719 3.39062C24.3021 3.39062 24.4297 3.39844 24.5547 3.41406C24.6849 3.42969 24.7995 3.45312 24.8984 3.48438ZM28.4609 5.64062V12H25.8281V3.54688H28.2891L28.4609 5.64062ZM30.9609 3.48438L30.9141 5.92969C30.8099 5.91927 30.6693 5.90625 30.4922 5.89062C30.3151 5.875 30.1667 5.86719 30.0469 5.86719C29.7396 5.86719 29.474 5.90365 29.25 5.97656C29.0312 6.04427 28.849 6.14844 28.7031 6.28906C28.5625 6.42448 28.4583 6.59635 28.3906 6.80469C28.3281 7.01302 28.2995 7.25521 28.3047 7.53125L27.8281 7.21875C27.8281 6.65104 27.8828 6.13542 27.9922 5.67188C28.1068 5.20312 28.2682 4.79948 28.4766 4.46094C28.6849 4.11719 28.9375 3.85417 29.2344 3.67188C29.5312 3.48438 29.8646 3.39062 30.2344 3.39062C30.3646 3.39062 30.4922 3.39844 30.6172 3.41406C30.7474 3.42969 30.862 3.45312 30.9609 3.48438ZM34.6484 3.54688V12H32.0078V3.54688H34.6484ZM31.8516 1.36719C31.8516 0.992188 31.987 0.684896 32.2578 0.445312C32.5286 0.205729 32.8802 0.0859375 33.3125 0.0859375C33.7448 0.0859375 34.0964 0.205729 34.3672 0.445312C34.638 0.684896 34.7734 0.992188 34.7734 1.36719C34.7734 1.74219 34.638 2.04948 34.3672 2.28906C34.0964 2.52865 33.7448 2.64844 33.3125 2.64844C32.8802 2.64844 32.5286 2.52865 32.2578 2.28906C31.987 2.04948 31.8516 1.74219 31.8516 1.36719ZM38.8594 5.35156V12H36.2266V3.54688H38.6953L38.8594 5.35156ZM38.5469 7.48438L37.9297 7.5C37.9297 6.85417 38.0078 6.27865 38.1641 5.77344C38.3203 5.26302 38.5417 4.83073 38.8281 4.47656C39.1146 4.1224 39.4557 3.85417 39.8516 3.67188C40.2526 3.48438 40.6979 3.39062 41.1875 3.39062C41.5781 3.39062 41.9349 3.44792 42.2578 3.5625C42.5859 3.67708 42.8672 3.86198 43.1016 4.11719C43.3411 4.3724 43.5234 4.71094 43.6484 5.13281C43.7786 5.54948 43.8438 6.0651 43.8438 6.67969V12H41.1953V6.67188C41.1953 6.33333 41.1484 6.07552 41.0547 5.89844C40.9609 5.71615 40.8255 5.59115 40.6484 5.52344C40.4714 5.45573 40.2552 5.42188 40 5.42188C39.7292 5.42188 39.5 5.47396 39.3125 5.57812C39.125 5.68229 38.974 5.82812 38.8594 6.01562C38.75 6.19792 38.6693 6.41406 38.6172 6.66406C38.5703 6.91406 38.5469 7.1875 38.5469 7.48438ZM47.8828 0V12H45.25V0H47.8828ZM47.5703 7.48438L46.9531 7.5C46.9531 6.90625 47.026 6.35938 47.1719 5.85938C47.3177 5.35938 47.526 4.92448 47.7969 4.55469C48.0677 4.1849 48.3932 3.89844 48.7734 3.69531C49.1536 3.49219 49.5755 3.39062 50.0391 3.39062C50.4557 3.39062 50.8359 3.45052 51.1797 3.57031C51.5286 3.6901 51.8281 3.88281 52.0781 4.14844C52.3333 4.41406 52.5286 4.76042 52.6641 5.1875C52.8047 5.61458 52.875 6.13542 52.875 6.75V12H50.2266V6.73438C50.2266 6.39062 50.1771 6.125 50.0781 5.9375C49.9844 5.74479 49.849 5.61198 49.6719 5.53906C49.4948 5.46094 49.2786 5.42188 49.0234 5.42188C48.7161 5.42188 48.4661 5.47396 48.2734 5.57812C48.0807 5.68229 47.9323 5.82812 47.8281 6.01562C47.7292 6.19792 47.6615 6.41406 47.625 6.66406C47.5885 6.91406 47.5703 7.1875 47.5703 7.48438ZM54.0078 7.85938V7.69531C54.0078 7.07552 54.0964 6.50521 54.2734 5.98438C54.4505 5.45833 54.7109 5.0026 55.0547 4.61719C55.3984 4.23177 55.8229 3.93229 56.3281 3.71875C56.8333 3.5 57.4167 3.39062 58.0781 3.39062C58.7448 3.39062 59.3307 3.5 59.8359 3.71875C60.3464 3.93229 60.7734 4.23177 61.1172 4.61719C61.4609 5.0026 61.7214 5.45833 61.8984 5.98438C62.0755 6.50521 62.1641 7.07552 62.1641 7.69531V7.85938C62.1641 8.47396 62.0755 9.04427 61.8984 9.57031C61.7214 10.0911 61.4609 10.5469 61.1172 10.9375C60.7734 11.3229 60.349 11.6224 59.8438 11.8359C59.3385 12.0495 58.7552 12.1562 58.0938 12.1562C57.4323 12.1562 56.8464 12.0495 56.3359 11.8359C55.8255 11.6224 55.3984 11.3229 55.0547 10.9375C54.7109 10.5469 54.4505 10.0911 54.2734 9.57031C54.0964 9.04427 54.0078 8.47396 54.0078 7.85938ZM56.6406 7.69531V7.85938C56.6406 8.17708 56.6641 8.47396 56.7109 8.75C56.7578 9.02604 56.8359 9.26823 56.9453 9.47656C57.0547 9.67969 57.2031 9.83854 57.3906 9.95312C57.5781 10.0677 57.8125 10.125 58.0938 10.125C58.3698 10.125 58.599 10.0677 58.7812 9.95312C58.9688 9.83854 59.1172 9.67969 59.2266 9.47656C59.3359 9.26823 59.4141 9.02604 59.4609 8.75C59.5078 8.47396 59.5312 8.17708 59.5312 7.85938V7.69531C59.5312 7.38802 59.5078 7.09896 59.4609 6.82812C59.4141 6.55208 59.3359 6.3099 59.2266 6.10156C59.1172 5.88802 58.9688 5.72135 58.7812 5.60156C58.5938 5.48177 58.3594 5.42188 58.0781 5.42188C57.8021 5.42188 57.5703 5.48177 57.3828 5.60156C57.2005 5.72135 57.0547 5.88802 56.9453 6.10156C56.8359 6.3099 56.7578 6.55208 56.7109 6.82812C56.6641 7.09896 56.6406 7.38802 56.6406 7.69531Z" fill="#343A40"/>
</svg>
