<svg width="97" height="38" viewBox="0 0 97 38" fill="none" xmlns="http://www.w3.org/2000/svg">
<path d="M44.0625 27.1484C44.026 27.9401 43.8125 28.6406 43.4219 29.25C43.0312 29.8542 42.4818 30.3229 41.7734 30.6562C41.0703 30.9896 40.2656 31.1562 39.3594 31.1562C37.8646 31.1562 36.6875 30.6693 35.8281 29.6953C34.9688 28.7214 34.5391 27.3464 34.5391 25.5703V25.0078C34.5391 23.8932 34.7318 22.9193 35.1172 22.0859C35.5078 21.2474 36.0677 20.6016 36.7969 20.1484C37.526 19.6901 38.3698 19.4609 39.3281 19.4609C40.7083 19.4609 41.8177 19.8255 42.6562 20.5547C43.4948 21.2786 43.9714 22.2786 44.0859 23.5547H41.3516C41.3307 22.862 41.1562 22.3646 40.8281 22.0625C40.5 21.7604 40 21.6094 39.3281 21.6094C38.6458 21.6094 38.1458 21.8646 37.8281 22.375C37.5104 22.8854 37.3438 23.7005 37.3281 24.8203V25.625C37.3281 26.8385 37.4792 27.7057 37.7812 28.2266C38.0885 28.7474 38.6146 29.0078 39.3594 29.0078C39.9896 29.0078 40.4714 28.8594 40.8047 28.5625C41.138 28.2656 41.3151 27.7943 41.3359 27.1484H44.0625ZM50 31C49.9062 30.8281 49.8229 30.5755 49.75 30.2422C49.2656 30.8516 48.5885 31.1562 47.7188 31.1562C46.9219 31.1562 46.2448 30.9167 45.6875 30.4375C45.1302 29.9531 44.8516 29.3464 44.8516 28.6172C44.8516 27.7005 45.1901 27.0078 45.8672 26.5391C46.5443 26.0703 47.5286 25.8359 48.8203 25.8359H49.6328V25.3906C49.6328 24.6146 49.2969 24.2266 48.625 24.2266C48 24.2266 47.6875 24.5339 47.6875 25.1484H45.0547C45.0547 24.3307 45.401 23.6667 46.0938 23.1562C46.7917 22.6458 47.6797 22.3906 48.7578 22.3906C49.8359 22.3906 50.6875 22.6536 51.3125 23.1797C51.9375 23.7057 52.2578 24.4271 52.2734 25.3438V29.0859C52.2839 29.862 52.4036 30.4557 52.6328 30.8672V31H50ZM48.3516 29.2812C48.6797 29.2812 48.9505 29.2109 49.1641 29.0703C49.3828 28.9297 49.5391 28.7708 49.6328 28.5938V27.2422H48.8672C47.9505 27.2422 47.4922 27.6536 47.4922 28.4766C47.4922 28.7161 47.5729 28.9115 47.7344 29.0625C47.8958 29.2083 48.1016 29.2812 48.3516 29.2812ZM58.8516 24.9297L57.9844 24.8672C57.1562 24.8672 56.625 25.1276 56.3906 25.6484V31H53.7578V22.5469H56.2266L56.3125 23.6328C56.7552 22.8047 57.3724 22.3906 58.1641 22.3906C58.4453 22.3906 58.6901 22.4219 58.8984 22.4844L58.8516 24.9297ZM64.9141 24.9297L64.0469 24.8672C63.2188 24.8672 62.6875 25.1276 62.4531 25.6484V31H59.8203V22.5469H62.2891L62.375 23.6328C62.8177 22.8047 63.4349 22.3906 64.2266 22.3906C64.5078 22.3906 64.7526 22.4219 64.9609 22.4844L64.9141 24.9297ZM68.6406 31H66V22.5469H68.6406V31ZM65.8438 20.3672C65.8438 19.9922 65.9792 19.6849 66.25 19.4453C66.5208 19.2057 66.8724 19.0859 67.3047 19.0859C67.737 19.0859 68.0885 19.2057 68.3594 19.4453C68.6302 19.6849 68.7656 19.9922 68.7656 20.3672C68.7656 20.7422 68.6302 21.0495 68.3594 21.2891C68.0885 21.5286 67.737 21.6484 67.3047 21.6484C66.8724 21.6484 66.5208 21.5286 66.25 21.2891C65.9792 21.0495 65.8438 20.7422 65.8438 20.3672ZM72.6875 22.5469L72.7734 23.5391C73.3568 22.7734 74.1615 22.3906 75.1875 22.3906C76.0677 22.3906 76.724 22.6536 77.1562 23.1797C77.5938 23.7057 77.8203 24.4974 77.8359 25.5547V31H75.1953V25.6641C75.1953 25.237 75.1094 24.9245 74.9375 24.7266C74.7656 24.5234 74.4531 24.4219 74 24.4219C73.4844 24.4219 73.1016 24.625 72.8516 25.0312V31H70.2188V22.5469H72.6875ZM81.875 23.4531C82.4375 22.7448 83.1562 22.3906 84.0312 22.3906C84.9635 22.3906 85.6667 22.6667 86.1406 23.2188C86.6146 23.7708 86.8568 24.5859 86.8672 25.6641V31H84.2266V25.7266C84.2266 25.2786 84.1354 24.9505 83.9531 24.7422C83.7708 24.5286 83.4609 24.4219 83.0234 24.4219C82.4818 24.4219 82.099 24.5938 81.875 24.9375V31H79.2422V19H81.875V23.4531ZM88 26.6953C88 25.8516 88.1641 25.1016 88.4922 24.4453C88.8203 23.7839 89.2917 23.276 89.9062 22.9219C90.5208 22.5677 91.2422 22.3906 92.0703 22.3906C93.3359 22.3906 94.3333 22.7839 95.0625 23.5703C95.7917 24.3516 96.1562 25.4167 96.1562 26.7656V26.8594C96.1562 28.1771 95.7891 29.224 95.0547 30C94.3255 30.7708 93.3359 31.1562 92.0859 31.1562C90.8828 31.1562 89.9167 30.7969 89.1875 30.0781C88.4583 29.3542 88.0651 28.375 88.0078 27.1406L88 26.6953ZM90.6328 26.8594C90.6328 27.6406 90.7552 28.2135 91 28.5781C91.2448 28.9427 91.6068 29.125 92.0859 29.125C93.0234 29.125 93.5026 28.4036 93.5234 26.9609V26.6953C93.5234 25.1797 93.0391 24.4219 92.0703 24.4219C91.1901 24.4219 90.7135 25.0755 90.6406 26.3828L90.6328 26.8594Z" fill="#343A40"/>
<path d="M8 32C6.9 32 6.01 32.9 6.01 34C6.01 35.1 6.9 36 8 36C9.1 36 10 35.1 10 34C10 32.9 9.1 32 8 32ZM2 16V18H4L7.6 25.59L6.25 28.04C6.09 28.32 6 28.65 6 29C6 30.1 6.9 31 8 31H20V29H8.42C8.28 29 8.17 28.89 8.17 28.75L8.2 28.63L9.1 27H16.55C17.3 27 17.96 26.59 18.3 25.97L21.88 19.48C21.96 19.34 22 19.17 22 19C22 18.45 21.55 18 21 18H6.21L5.27 16H2ZM18 32C16.9 32 16.01 32.9 16.01 34C16.01 35.1 16.9 36 18 36C19.1 36 20 35.1 20 34C20 32.9 19.1 32 18 32Z" fill="#343A40"/>
<circle cx="13.5" cy="7.5" r="7.5" fill="#FF0F9A"/>
<path d="M12.1899 7.0462H12.9126C13.2772 7.04295 13.5653 6.94855 13.7769 6.763C13.9917 6.57745 14.0991 6.3089 14.0991 5.95734C14.0991 5.61879 14.0096 5.35675 13.8306 5.1712C13.6548 4.9824 13.3846 4.888 13.02 4.888C12.701 4.888 12.439 4.98077 12.2339 5.16632C12.0288 5.34861 11.9263 5.58787 11.9263 5.88409H10.7397C10.7397 5.51951 10.8358 5.18748 11.0278 4.888C11.2231 4.58852 11.4933 4.35577 11.8384 4.18976C12.1867 4.02049 12.5757 3.93585 13.0054 3.93585C13.715 3.93585 14.2716 4.11489 14.6753 4.47296C15.0822 4.82778 15.2856 5.32257 15.2856 5.95734C15.2856 6.27635 15.1831 6.57745 14.978 6.86066C14.7762 7.1406 14.5142 7.35219 14.1919 7.49542C14.5825 7.62889 14.8787 7.83885 15.0806 8.12531C15.2856 8.41176 15.3882 8.75356 15.3882 9.1507C15.3882 9.78872 15.1685 10.2965 14.729 10.6741C14.2928 11.0517 13.7183 11.2405 13.0054 11.2405C12.3218 11.2405 11.7619 11.0582 11.3257 10.6937C10.8895 10.3291 10.6714 9.84406 10.6714 9.23859H11.8579C11.8579 9.55109 11.9621 9.80499 12.1704 10.0003C12.382 10.1956 12.6652 10.2933 13.02 10.2933C13.3879 10.2933 13.6776 10.1956 13.8892 10.0003C14.1007 9.80499 14.2065 9.52179 14.2065 9.1507C14.2065 8.77635 14.0959 8.48826 13.8745 8.28644C13.6532 8.08462 13.3244 7.9837 12.8882 7.9837H12.1899V7.0462Z" fill="white"/>
</svg>
