<svg width="44" height="12" viewBox="0 0 44 12" fill="none" xmlns="http://www.w3.org/2000/svg">
<path d="M8.69531 9.39062V11.5H2.63281V9.39062H8.69531ZM3.60938 0.125V11.5H0.867188V0.125H3.60938ZM7.91406 4.64062V6.67969H2.63281V4.64062H7.91406ZM8.71875 0.125V2.24219H2.63281V0.125H8.71875ZM12.2812 4.85156V11.5H9.64844V3.04688H12.1172L12.2812 4.85156ZM11.9688 6.98438L11.3516 7C11.3516 6.35417 11.4297 5.77865 11.5859 5.27344C11.7422 4.76302 11.9635 4.33073 12.25 3.97656C12.5365 3.6224 12.8776 3.35417 13.2734 3.17188C13.6745 2.98438 14.1198 2.89062 14.6094 2.89062C15 2.89062 15.3568 2.94792 15.6797 3.0625C16.0078 3.17708 16.2891 3.36198 16.5234 3.61719C16.763 3.8724 16.9453 4.21094 17.0703 4.63281C17.2005 5.04948 17.2656 5.5651 17.2656 6.17969V11.5H14.6172V6.17188C14.6172 5.83333 14.5703 5.57552 14.4766 5.39844C14.3828 5.21615 14.2474 5.09115 14.0703 5.02344C13.8932 4.95573 13.6771 4.92188 13.4219 4.92188C13.151 4.92188 12.9219 4.97396 12.7344 5.07812C12.5469 5.18229 12.3958 5.32812 12.2812 5.51562C12.1719 5.69792 12.0911 5.91406 12.0391 6.16406C11.9922 6.41406 11.9688 6.6875 11.9688 6.98438ZM23.1797 3.04688V4.875H18.0859V3.04688H23.1797ZM19.1562 0.945312H21.7891V8.74219C21.7891 8.96615 21.8151 9.14062 21.8672 9.26562C21.9193 9.38542 22.0078 9.47135 22.1328 9.52344C22.263 9.57031 22.4349 9.59375 22.6484 9.59375C22.7995 9.59375 22.9245 9.59115 23.0234 9.58594C23.1224 9.57552 23.2161 9.5625 23.3047 9.54688V11.4297C23.0807 11.5026 22.8464 11.5573 22.6016 11.5938C22.3568 11.6354 22.0964 11.6562 21.8203 11.6562C21.2578 11.6562 20.776 11.5677 20.375 11.3906C19.9792 11.2135 19.6771 10.9349 19.4688 10.5547C19.2604 10.1745 19.1562 9.67969 19.1562 9.07031V0.945312ZM26.8828 5.14062V11.5H24.25V3.04688H26.7109L26.8828 5.14062ZM29.3828 2.98438L29.3359 5.42969C29.2318 5.41927 29.0911 5.40625 28.9141 5.39062C28.737 5.375 28.5885 5.36719 28.4688 5.36719C28.1615 5.36719 27.8958 5.40365 27.6719 5.47656C27.4531 5.54427 27.2708 5.64844 27.125 5.78906C26.9844 5.92448 26.8802 6.09635 26.8125 6.30469C26.75 6.51302 26.7214 6.75521 26.7266 7.03125L26.25 6.71875C26.25 6.15104 26.3047 5.63542 26.4141 5.17188C26.5286 4.70312 26.6901 4.29948 26.8984 3.96094C27.1068 3.61719 27.3594 3.35417 27.6562 3.17188C27.9531 2.98438 28.2865 2.89062 28.6562 2.89062C28.7865 2.89062 28.9141 2.89844 29.0391 2.91406C29.1693 2.92969 29.2839 2.95312 29.3828 2.98438ZM34.4453 9.375V5.89062C34.4453 5.65104 34.4115 5.44531 34.3438 5.27344C34.276 5.10156 34.1693 4.96875 34.0234 4.875C33.8776 4.77604 33.6823 4.72656 33.4375 4.72656C33.2396 4.72656 33.0703 4.76042 32.9297 4.82812C32.7891 4.89583 32.6823 4.9974 32.6094 5.13281C32.5365 5.26823 32.5 5.4401 32.5 5.64844H29.8672C29.8672 5.25781 29.9531 4.89583 30.125 4.5625C30.3021 4.22396 30.5521 3.92969 30.875 3.67969C31.2031 3.42969 31.5938 3.23698 32.0469 3.10156C32.5052 2.96094 33.0156 2.89062 33.5781 2.89062C34.25 2.89062 34.849 3.0026 35.375 3.22656C35.9062 3.45052 36.3255 3.78646 36.6328 4.23438C36.9401 4.67708 37.0938 5.23438 37.0938 5.90625V9.36719C37.0938 9.91927 37.125 10.3385 37.1875 10.625C37.25 10.9062 37.3385 11.1536 37.4531 11.3672V11.5H34.8125C34.6875 11.2396 34.5938 10.9219 34.5312 10.5469C34.474 10.1667 34.4453 9.77604 34.4453 9.375ZM34.7656 6.33594L34.7812 7.74219H33.6172C33.3724 7.74219 33.1641 7.77604 32.9922 7.84375C32.8255 7.91146 32.6901 8.00521 32.5859 8.125C32.487 8.23958 32.4141 8.36979 32.3672 8.51562C32.3255 8.66146 32.3047 8.8151 32.3047 8.97656C32.3047 9.13281 32.3411 9.27344 32.4141 9.39844C32.4922 9.51823 32.5964 9.61198 32.7266 9.67969C32.8568 9.7474 33.0026 9.78125 33.1641 9.78125C33.4557 9.78125 33.7031 9.72656 33.9062 9.61719C34.1146 9.5026 34.2734 9.36458 34.3828 9.20312C34.4922 9.04167 34.5469 8.89062 34.5469 8.75L35.125 9.82812C35.0208 10.0365 34.901 10.2474 34.7656 10.4609C34.6354 10.6745 34.4714 10.8724 34.2734 11.0547C34.0807 11.2318 33.8438 11.3776 33.5625 11.4922C33.2812 11.6016 32.9401 11.6562 32.5391 11.6562C32.0182 11.6562 31.5391 11.5495 31.1016 11.3359C30.6693 11.1224 30.3229 10.8255 30.0625 10.4453C29.8021 10.0599 29.6719 9.61719 29.6719 9.11719C29.6719 8.67969 29.75 8.28906 29.9062 7.94531C30.0677 7.60156 30.3099 7.3099 30.6328 7.07031C30.9557 6.83073 31.3672 6.64844 31.8672 6.52344C32.3672 6.39844 32.9557 6.33594 33.6328 6.33594H34.7656ZM41.2109 5.14062V11.5H38.5781V3.04688H41.0391L41.2109 5.14062ZM43.7109 2.98438L43.6641 5.42969C43.5599 5.41927 43.4193 5.40625 43.2422 5.39062C43.0651 5.375 42.9167 5.36719 42.7969 5.36719C42.4896 5.36719 42.224 5.40365 42 5.47656C41.7812 5.54427 41.599 5.64844 41.4531 5.78906C41.3125 5.92448 41.2083 6.09635 41.1406 6.30469C41.0781 6.51302 41.0495 6.75521 41.0547 7.03125L40.5781 6.71875C40.5781 6.15104 40.6328 5.63542 40.7422 5.17188C40.8568 4.70312 41.0182 4.29948 41.2266 3.96094C41.4349 3.61719 41.6875 3.35417 41.9844 3.17188C42.2812 2.98438 42.6146 2.89062 42.9844 2.89062C43.1146 2.89062 43.2422 2.89844 43.3672 2.91406C43.4974 2.92969 43.612 2.95312 43.7109 2.98438Z" fill="#343A40"/>
</svg>
